HIERARCHY
ROOT Hips
{
	OFFSET 0.00000 0.00000 0.00000
	CHANNELS 6 Xposition Yposition Zposition Zrotation Yrotation Xrotation 
	JOINT LHipJoint
	{
		OFFSET 0 0 0
		CHANNELS 3 Zrotation Yrotation Xrotation
		JOINT LeftHip
		{
			OFFSET 1.52977 -1.71332 0.88991
			CHANNELS 3 Zrotation Yrotation Xrotation
			JOINT LeftKnee
			{
				OFFSET 2.23949 -6.15296 0.00000
				CHANNELS 3 Zrotation Yrotation Xrotation
				JOINT LeftAnkle
				{
					OFFSET 2.68396 -7.37412 0.00000
					CHANNELS 3 Zrotation Yrotation Xrotation
					JOINT LeftToe
					{
						OFFSET 0.20538 -0.56428 2.52710
						CHANNELS 3 Zrotation Yrotation Xrotation
						End Site
						{
							OFFSET 0.00000 -0.00000 1.29919
						}
					}
				}
			}
		}
	}
	JOINT RHipJoint
	{
		OFFSET 0 0 0
		CHANNELS 3 Zrotation Yrotation Xrotation
		JOINT RightHip
		{
			OFFSET -1.45689 -1.71333 0.88991
			CHANNELS 3 Zrotation Yrotation Xrotation
			JOINT RightKnee
			{
				OFFSET -2.36700 -6.50329 0.00000
				CHANNELS 3 Zrotation Yrotation Xrotation
				JOINT RightAnkle
				{
					OFFSET -2.69814 -7.41308 0.00000
					CHANNELS 3 Zrotation Yrotation Xrotation
					JOINT RightToe
					{
						OFFSET -0.18734 -0.51471 2.37479
						CHANNELS 3 Zrotation Yrotation Xrotation
						End Site
						{
							OFFSET -0.00000 -0.00000 1.22113
						}
					}
				}
			}
		}
	}
	JOINT lowerback
	{
		OFFSET 0 0 0
		CHANNELS 3 Zrotation Yrotation Xrotation
		JOINT Chest
		{
			OFFSET 0.04294 2.14638 -0.31163
			CHANNELS 3 Zrotation Yrotation Xrotation
			JOINT Chest2
			{
				OFFSET -0.00400 2.17216 0.01486
				CHANNELS 3 Zrotation Yrotation Xrotation
				JOINT lowerneck
				{
					OFFSET 0 0 0
					CHANNELS 3 Zrotation Yrotation Xrotation
					JOINT Neck
					{
						OFFSET 0.03869 1.76598 0.14916
						CHANNELS 3 Zrotation Yrotation Xrotation
						JOINT Head
						{
							OFFSET -0.00760 1.75513 -0.18948
							CHANNELS 3 Zrotation Yrotation Xrotation
							End Site
							{
								OFFSET -0.00601 1.82444 -0.08310
							}
						}
					}
				}
				JOINT LeftCollar
				{
					OFFSET 0 0 0
					CHANNELS 3 Zrotation Yrotation Xrotation
					JOINT LeftShoulder
					{
						OFFSET 3.73696 0.92058 0.01733
CHANNELS 3 Zrotation Xrotation Yrotation
						JOINT LeftElbow
						{
OFFSET 0 -5.227710 0.000000
CHANNELS 3 Zrotation Xrotation Yrotation
							JOINT LeftWrist
							{
OFFSET 0 -3.452510 0.000000
CHANNELS 3 Zrotation Xrotation Yrotation
								JOINT lhand
								{
									OFFSET 0 0 0
CHANNELS 3 Zrotation Xrotation Yrotation
									JOINT LFingers
									{
OFFSET 0 -0.552120 0.000000
CHANNELS 3 Zrotation Xrotation Yrotation
										End Site
										{
OFFSET 0 -0.445130 0.000000
										}
									}
								}
								JOINT LThumb
								{
OFFSET 0 0.000000 0.000000
CHANNELS 3 Zrotation Xrotation Yrotation
									End Site
									{
OFFSET 0 -0.451930 0.451930
									}
								}
							}
						}
					}
				}
				JOINT RightCollar
				{
					OFFSET 0 0 0
					CHANNELS 3 Zrotation Yrotation Xrotation
					JOINT RightShoulder
					{
						OFFSET -3.63819 0.83094 -0.13694
CHANNELS 3 Zrotation Xrotation Yrotation
						JOINT RightElbow
						{
OFFSET 0 -5.239800 -0.000000
CHANNELS 3 Zrotation Xrotation Yrotation
							JOINT RightWrist
							{
OFFSET 0 -3.480420 -0.000000
CHANNELS 3 Zrotation Xrotation Yrotation
								JOINT rhand
								{
									OFFSET 0 0 0
CHANNELS 3 Zrotation Xrotation Yrotation
									JOINT RFingers
									{
OFFSET 0 -0.618710 0.000000
CHANNELS 3 Zrotation Xrotation Yrotation
										End Site
										{
OFFSET 0 -0.498820 0.000000
										}
									}
								}
								JOINT RThumb
								{
OFFSET 0 0.000000 0.000000
CHANNELS 3 Zrotation Xrotation Yrotation
									End Site
									{
OFFSET 0 -0.506440 0.506440
									}
								}
							}
						}
					}
				}
			}
		}
	}
}
MOTION
Frames: 8
Frame Time: 0.008333333333333333
-11.494510 16.723371 -6.615111 -624.646299 -97.200398 620.490454 0.000000 0.000000 0.000000 -10.855922 -7.631692 -24.174303 4.873461 13.235841 40.264772 0.506289 8.349535 -18.994210 0.645503 -5.139608 -14.307099 0.000000 0.000000 0.000000 34.386510 0.208761 2.464203 -2.187950 -9.246278 26.569553 -1.765709 -2.252649 -26.003639 -0.067926 -1.681271 4.625676 8.516576 0.722248 0.675689 0.463595 0.887776 2.039206 -4.284553 0.566245 1.864865 0.841200 -1.476606 -8.069785 3.644902 -2.315859 4.190761 0.917632 -1.016638 2.786732 0.000000 0.000000 0.000000 1.262533 9.059819 -15.181580 13.464625 -21.964211 2.624564 17.052880 -7.111577 -14.037242 0.000000 0.000000 0.000000 -7.125000 0.000000 0.000000 -9.592614 44.420991 -0.138434 0.000000 0.000000 0.000000 -2.558953 -3.128946 29.995704 -15.806503 -25.257372 -3.563062 -19.007618 4.061151 5.157150 0.000000 0.000000 0.000000 7.125000 0.000000 0.000000 6.391053 35.373540 1.519177
-11.722262 16.717563 -6.609759 -626.172953 -97.354933 622.234057 0.000000 0.000000 0.000000 -10.895300 -7.477249 -24.740131 4.165417 12.370793 37.066354 0.476553 8.708219 -19.006225 0.629195 -5.075534 -14.124079 0.000000 0.000000 0.000000 34.421275 -0.668389 3.536586 -1.995289 -8.854778 25.343181 -1.765941 -1.858433 -25.842089 -0.064686 -1.640770 4.513829 8.821864 0.806159 0.482520 0.443877 0.977128 2.051510 -4.471702 0.622235 2.006917 0.839604 -1.465268 -8.095274 3.600934 -2.298585 4.214774 0.904413 -1.008768 2.798691 0.000000 0.000000 0.000000 1.312712 9.238827 -15.054697 13.562763 -22.106160 2.661329 17.154720 -7.170189 -14.152657 0.000000 0.000000 0.000000 -7.125000 0.000000 0.000000 -9.528159 44.550785 -0.106681 0.000000 0.000000 0.000000 -2.620462 -3.652064 30.529255 -16.130204 -25.696606 -3.702371 -19.162689 3.692499 5.108294 0.000000 0.000000 0.000000 7.125000 0.000000 0.000000 6.257421 35.329562 1.493835
-11.951427 16.709986 -6.603174 -627.962077 -97.594481 624.277237 0.000000 0.000000 0.000000 -10.843813 -7.232174 -25.333094 3.512981 11.482018 33.923673 0.456486 8.837111 -18.909492 0.627080 -5.067125 -14.100184 0.000000 0.000000 0.000000 34.506032 -1.545276 4.628090 -1.795864 -8.427098 24.019010 -1.751492 -1.461094 -25.580964 -0.060053 -1.580688 4.348198 9.212954 0.903418 0.252763 0.445029 1.078379 2.049762 -4.683947 0.685698 2.159637 0.843129 -1.457374 -8.113930 3.556502 -2.285822 4.222371 0.889871 -1.003448 2.803671 0.000000 0.000000 0.000000 1.366507 9.368424 -14.903007 13.590789 -22.146639 2.671858 17.251732 -7.173859 -14.205110 0.000000 0.000000 0.000000 -7.125000 0.000000 0.000000 -9.452835 44.615782 -0.090477 0.000000 0.000000 0.000000 -2.662985 -4.133523 31.039531 -16.454110 -26.132512 -3.843870 -19.295294 3.338791 5.085598 0.000000 0.000000 0.000000 7.125000 0.000000 0.000000 6.145185 35.312041 1.469464
-12.181581 16.700320 -6.595929 -630.013406 -97.949122 626.621399 0.000000 0.000000 0.000000 -10.672246 -6.851541 -26.012464 2.944079 10.597847 30.941396 0.450476 8.640423 -18.653649 0.652084 -5.165084 -14.380143 0.000000 0.000000 0.000000 34.672065 -2.384928 5.746787 -1.594081 -7.961674 22.598805 -1.717893 -1.089094 -25.196846 -0.053091 -1.486467 4.088436 9.704771 1.017118 -0.002943 0.475948 1.194538 2.031668 -4.919755 0.758091 2.316400 0.850119 -1.450722 -8.148058 3.517209 -2.275702 4.230330 0.876251 -0.999053 2.811901 0.000000 0.000000 0.000000 1.426508 9.431961 -14.728160 13.524963 -22.051493 2.647166 17.326208 -7.109324 -14.208224 0.000000 0.000000 0.000000 -7.125000 0.000000 0.000000 -9.386107 44.627705 -0.087033 0.000000 0.000000 0.000000 -2.688364 -4.568401 31.549021 -16.774160 -26.558827 -3.985927 -19.447584 2.986836 5.057599 0.000000 0.000000 0.000000 7.125000 0.000000 0.000000 6.016320 35.289677 1.441607
-12.412147 16.689107 -6.588835 -632.149896 -98.363556 629.067811 0.000000 0.000000 0.000000 -10.453850 -6.336513 -26.781763 2.450683 9.743222 28.152993 0.456165 8.120427 -18.225438 0.697390 -5.337922 -14.875090 0.000000 0.000000 0.000000 34.878298 -3.160014 6.898367 -1.397305 -7.476329 21.135337 -1.670137 -0.758535 -24.725991 -0.044853 -1.366692 3.758254 10.226494 1.141084 -0.254909 0.523877 1.321385 2.004491 -5.153274 0.835749 2.465828 0.859902 -1.444976 -8.194053 3.481985 -2.267540 4.231145 0.863334 -0.995490 2.819942 0.000000 0.000000 0.000000 1.492688 9.436611 -14.531721 13.374157 -21.832894 2.590844 17.387519 -6.979684 -14.128564 0.000000 0.000000 0.000000 -7.125000 0.000000 0.000000 -9.311432 44.553205 -0.103572 0.000000 0.000000 0.000000 -2.700365 -4.968641 32.065117 -17.083977 -26.968120 -4.125423 -19.602438 2.642613 5.017484 0.000000 0.000000 0.000000 7.125000 0.000000 0.000000 5.884020 35.254612 1.414700
-12.642579 16.676664 -6.582282 -634.288584 -98.779694 631.517644 0.000000 0.000000 0.000000 -10.264105 -5.703753 -27.627821 2.037112 8.940099 25.610098 0.478509 7.200397 -17.652292 0.747436 -5.522427 -15.404796 0.000000 0.000000 0.000000 35.070564 -3.850240 8.078773 -1.213616 -6.986921 19.677216 -1.609403 -0.521903 -24.190638 -0.032897 -1.168667 3.213079 10.704698 1.268825 -0.478688 0.574792 1.454860 1.968742 -5.358368 0.914782 2.592237 0.870233 -1.434264 -8.243493 3.458433 -2.253530 4.221964 0.854317 -0.988848 2.825384 0.000000 0.000000 0.000000 1.563165 9.382031 -14.303733 13.132989 -21.481678 2.501878 17.436790 -6.764008 -13.955806 0.000000 0.000000 0.000000 -7.125000 0.000000 0.000000 -9.225834 44.381873 -0.141993 0.000000 0.000000 0.000000 -2.696913 -5.333634 32.591505 -17.373204 -27.347053 -4.257391 -19.731269 2.328846 4.979660 0.000000 0.000000 0.000000 7.125000 0.000000 0.000000 5.773550 35.220794 1.392647
-12.872866 16.664008 -6.576344 -636.357965 -99.141964 633.879713 0.000000 0.000000 0.000000 -10.139544 -5.081017 -28.461433 1.699746 8.205733 23.343499 0.525516 5.867330 -17.100090 0.758456 -5.561970 -15.518557 0.000000 0.000000 0.000000 35.196295 -4.446257 9.283648 -1.049748 -6.512814 18.280649 -1.540841 -0.394634 -23.626312 -0.019739 -0.900999 2.476458 11.078215 1.391087 -0.652144 0.613704 1.588284 1.927952 -5.517650 0.990437 2.683315 0.868998 -1.417635 -8.292701 3.463490 -2.232047 4.205783 0.856980 -0.977827 2.828978 0.000000 0.000000 0.000000 1.640317 9.272792 -14.033455 12.805574 -21.001384 2.383345 17.464951 -6.429202 -13.736977 0.000000 0.000000 0.000000 -7.125000 0.000000 0.000000 -9.149329 44.160531 -0.191201 0.000000 0.000000 0.000000 -2.671028 -5.659045 33.115073 -17.633293 -27.684961 -4.377641 -19.810030 2.080750 4.956910 0.000000 0.000000 0.000000 7.125000 0.000000 0.000000 5.706123 35.200439 1.379086
-13.103440 16.651888 -6.570298 -638.364543 -99.431119 636.144519 0.000000 0.000000 0.000000 -10.058225 -4.596680 -29.195069 1.423943 7.545135 21.341178 0.566851 4.424460 -16.526598 0.765552 -5.587317 -15.591749 0.000000 0.000000 0.000000 35.230030 -4.974039 10.497494 -0.906658 -6.067440 16.980390 -1.469335 -0.337339 -23.053412 -0.008538 -0.593542 1.631083 11.344020 1.502966 -0.769869 0.632172 1.717358 1.887785 -5.638949 1.060669 2.740622 0.864844 -1.394020 -8.344010 3.488249 -2.202519 4.188250 0.867021 -0.962241 2.832860 0.000000 0.000000 0.000000 1.724219 9.116423 -13.716206 12.411534 -20.418899 2.243861 17.481254 -5.962432 -13.544910 0.000000 0.000000 0.000000 -7.125000 0.000000 0.000000 -9.090435 43.965309 -0.234202 0.000000 0.000000 0.000000 -2.620930 -5.951136 33.619708 -17.860910 -27.978668 -4.483787 -19.838132 1.914119 4.951235 0.000000 0.000000 0.000000 7.125000 0.000000 0.000000 5.682287 35.195717 1.373999
